<svg width="22" height="22" viewBox="0 0 22 22" fill="none" xmlns="http://www.w3.org/2000/svg">
<path d="M1 11.9091C1 13.25 2.15547 14.3353 3.57713 14.3353H18.423C19.8445 14.3353 21 13.25 21 11.9091V10.0909C21 8.75003 19.8445 7.66479 18.423 7.66479H3.57713C2.15547 7.66479 1 8.75003 1 10.0909V11.9091Z" stroke="black" stroke-width="1.71" stroke-miterlimit="10" stroke-linecap="round" stroke-linejoin="round"/>
<path d="M1 5.24431C1 6.57954 2.15547 7.66477 3.57713 7.66477H18.423C19.8445 7.66477 21 6.57954 21 5.24431V3.42613C21 2.08522 19.8445 1 18.423 1H3.57713C2.15547 1 1 2.08522 1 3.42613V5.24431Z" stroke="black" stroke-width="1.71" stroke-miterlimit="10" stroke-linecap="round" stroke-linejoin="round"/>
<path d="M1 18.5737C1 19.9147 2.15547 20.9999 3.57713 20.9999H18.423C19.8445 20.9999 21 19.9147 21 18.5737V16.7556C21 15.4204 19.8445 14.3352 18.423 14.3352H3.57713C2.15547 14.3352 1 15.4204 1 16.7556V18.5737Z" stroke="black" stroke-width="1.71" stroke-miterlimit="10" stroke-linecap="round" stroke-linejoin="round"/>
<path d="M18.3563 4.34561C18.3563 4.84561 17.9208 5.2547 17.3883 5.2547C16.8499 5.2547 16.4204 4.84561 16.4204 4.34561C16.4204 3.83993 16.8499 3.43652 17.3883 3.43652C17.9208 3.43652 18.3563 3.83993 18.3563 4.34561Z" fill="black"/>
<path d="M18.3563 11.1818C18.3563 11.6819 17.9208 12.0909 17.3883 12.0909C16.8499 12.0909 16.4204 11.6819 16.4204 11.1818C16.4204 10.6761 16.8499 10.2727 17.3883 10.2727C17.9208 10.2727 18.3563 10.6761 18.3563 11.1818Z" fill="black"/>
<path d="M18.3563 17.8727C18.3563 18.3726 17.9208 18.7818 17.3883 18.7818C16.8499 18.7818 16.4204 18.3726 16.4204 17.8727C16.4204 17.367 16.8499 16.9636 17.3883 16.9636C17.9208 16.9636 18.3563 17.367 18.3563 17.8727Z" fill="black"/>
</svg>
