<svg width="24" height="24" viewBox="0 0 24 24" fill="none" xmlns="http://www.w3.org/2000/svg">
<path fill-rule="evenodd" clip-rule="evenodd" d="M15.7921 14.5006C15.5733 14.3775 15.3067 14.3743 15.0849 14.4922L12.3914 15.9227C12.1506 16.0506 12 16.301 12 16.5738V19.3924C12 19.6651 12.1506 19.9156 12.3914 20.0435L15.0849 21.474C15.3067 21.5917 15.5733 21.5885 15.7921 21.4654L18.3262 20.0404C18.5584 19.9099 18.7021 19.6642 18.7021 19.3979V16.5683C18.7021 16.3019 18.5584 16.0562 18.3262 15.9257L15.7921 14.5006ZM13.2549 16.3699L15.4298 15.2148L17.4845 16.3701C17.3688 16.4297 17.2418 16.4948 17.1071 16.5634C16.5854 16.829 15.9541 17.1436 15.4306 17.3845C14.8742 17.1428 14.2015 16.8262 13.6465 16.5594C13.5069 16.4923 13.3751 16.4284 13.2549 16.3699ZM12.8 17.0382V19.3546L15.0353 20.5418V20.5398V20.5331V20.5262V20.5195V20.5127V20.5059V20.4991V20.4925V20.4858V20.479V20.4723V20.4657V20.4589V20.4523V20.4457V20.4389V20.4323V20.4257V20.419V20.4125V20.4059V20.3993V20.3927V20.3861V20.3796V20.373V20.3665V20.3599V20.3534V20.3469V20.3404V20.3339V20.3275V20.321V20.3145V20.3081V20.3017V20.2951V20.2887V20.2823V20.2759V20.2695V20.2631V20.2567V20.2503V20.2439V20.2377V20.2313V20.225V20.2186V20.2123V20.206V20.1996V20.1933V20.187V20.1807V20.1745V20.1682V20.1619V20.1557V20.1494V20.1431V20.137V20.1307V20.1245V20.1182V20.1121V20.1059V20.0997V20.0935V20.0873V20.0811V20.0749V20.0689V20.0627V20.0565V20.0503V20.0442V20.0381V20.0319V20.0259V20.0197V20.0137V20.0075V20.0014V19.9954V19.9893V19.9831V19.9771V19.971V19.965V19.9589V19.9529V19.9468V19.9407V19.9348V19.9287V19.9227V19.9166V19.9107V19.9046V19.8987V19.8926V19.8867V19.8806V19.8747V19.8686V19.8627V19.8567V19.8507V19.8447V19.8388V19.8329V19.8269V19.821V19.8149V19.809V19.803V19.7971V19.7911V19.7853V19.7794V19.7734V19.7675V19.7615V19.7556V19.7498V19.7438V19.7379V19.7319V19.7261V19.7202V19.7142V19.7084V19.7025V19.6966V19.6907V19.6849V19.6789V19.673V19.6671V19.6613V19.6554V19.6495V19.6436V19.6378V19.6318V19.626V19.6202V19.6142V19.6084V19.6026V19.5966V19.5908V19.585V19.579V19.5732V19.5674V19.5614V19.5556V19.5498V19.5438V19.538V19.5322V19.5263V19.5204V19.5146V19.5087V19.5028V19.497V19.4911V19.4853V19.4794V19.4735V19.4677V19.4618V19.4559V19.4501V19.4443V19.4383V19.4325V19.4267V19.4207V19.4149V19.409V19.4031V19.3973V19.3914V19.3855V19.3796V19.3738V19.3679V19.362V19.3562V19.3502V19.3444V19.3385V19.3325V19.3267V19.3207V19.3149V19.309V19.303V19.2972V19.2913V19.2853V19.2795V19.2735V19.2676V19.2617V19.2557V19.2498V19.2438V19.238V19.2321V19.2261V19.2202V19.2142V19.2082V19.2022V19.1963V19.1903V19.1844V19.1785V19.1724V19.1665V19.1605V19.1545V19.1485V19.1425V19.1365V19.1305V19.1245V19.1185V19.1125V19.1065V19.1004V19.0943V19.0884V19.0823V19.0763V19.0702V19.0642V19.0581V19.0521V19.046V19.0398V19.0338V19.0277V19.0217V19.0155V19.0094V19.0033V18.9972V18.991V18.985V18.9788V18.9726V18.9665V18.9604V18.9542V18.9481V18.9419V18.9357V18.9294V18.9233V18.9171V18.9109V18.9046V18.8985V18.8922V18.886V18.8797V18.8734V18.8673V18.861V18.8547V18.8484V18.8421V18.8358V18.8295V18.8231V18.8169V18.8106V18.8042V18.7979V18.7915V18.7852V18.7788V18.7724V18.766V18.7596V18.7532V18.7468V18.7404V18.734V18.7275V18.7211V18.7147V18.7082V18.7017V18.6953V18.6887V18.6822V18.6757V18.6692V18.6627V18.6562V18.6495V18.643V18.6364V18.6299V18.6233V18.6166V18.6101V18.6035V18.5969V18.5902V18.5835V18.5769V18.5702V18.5635V18.5569V18.5501V18.5434V18.5367V18.53V18.5233V18.5164V18.5097V18.5029V18.4961V18.4893V18.4825V18.4757V18.4689V18.462V18.4551V18.4483V18.4413V18.4345V18.4276V18.4206V18.4137V18.4068V18.3998V18.3929V18.3859V18.3789V18.3718V18.3649V18.3578V18.3508V18.3437V18.3366V18.3295V18.3225V18.3154V18.3082V18.3011V18.2939V18.2868V18.2796V18.2724V18.2652V18.258V18.2508V18.2435V18.2363V18.229V18.2217V18.2145V18.2071V18.1997V18.1924V18.1851V18.1777V18.1703V18.1629V18.1555V18.1481V18.1406V18.1332V18.1257V18.1182V18.1107V18.1031V18.0957V18.0881V18.0849C14.4797 17.8414 13.8314 17.5361 13.2998 17.2804C13.1173 17.1926 12.9479 17.1103 12.8 17.0382ZM15.8353 20.5233L17.9021 19.3611V17.0549C17.7721 17.1219 17.6262 17.1969 17.4701 17.2763C16.9696 17.5311 16.3595 17.8355 15.8353 18.0788V18.0805V18.0881V18.0957V18.1031V18.1107V18.1182V18.1257V18.1332V18.1406V18.1481V18.1555V18.1629V18.1703V18.1777V18.1851V18.1924V18.1997V18.2071V18.2145V18.2217V18.229V18.2363V18.2435V18.2508V18.258V18.2652V18.2724V18.2796V18.2868V18.2939V18.3011V18.3082V18.3154V18.3225V18.3295V18.3366V18.3437V18.3508V18.3578V18.3649V18.3718V18.3789V18.3859V18.3929V18.3998V18.4068V18.4137V18.4206V18.4276V18.4345V18.4413V18.4483V18.4551V18.462V18.4689V18.4757V18.4825V18.4893V18.4961V18.5029V18.5097V18.5164V18.5233V18.53V18.5367V18.5434V18.5501V18.5569V18.5635V18.5702V18.5769V18.5835V18.5902V18.5969V18.6035V18.6101V18.6166V18.6233V18.6299V18.6364V18.643V18.6495V18.6562V18.6627V18.6692V18.6757V18.6822V18.6887V18.6953V18.7017V18.7082V18.7147V18.7211V18.7275V18.734V18.7404V18.7468V18.7532V18.7596V18.766V18.7724V18.7788V18.7852V18.7915V18.7979V18.8042V18.8106V18.8169V18.8231V18.8295V18.8358V18.8421V18.8484V18.8547V18.861V18.8673V18.8734V18.8797V18.886V18.8922V18.8985V18.9046V18.9109V18.9171V18.9233V18.9294V18.9357V18.9419V18.9481V18.9542V18.9604V18.9665V18.9726V18.9788V18.985V18.991V18.9972V19.0033V19.0094V19.0155V19.0217V19.0277V19.0338V19.0398V19.046V19.0521V19.0581V19.0642V19.0702V19.0763V19.0823V19.0884V19.0943V19.1004V19.1065V19.1125V19.1185V19.1245V19.1305V19.1365V19.1425V19.1485V19.1545V19.1605V19.1665V19.1724V19.1785V19.1844V19.1903V19.1963V19.2022V19.2082V19.2142V19.2202V19.2261V19.2321V19.238V19.2438V19.2498V19.2557V19.2617V19.2676V19.2735V19.2795V19.2853V19.2913V19.2972V19.303V19.309V19.3149V19.3207V19.3267V19.3325V19.3385V19.3444V19.3502V19.3562V19.362V19.3679V19.3738V19.3796V19.3855V19.3914V19.3973V19.4031V19.409V19.4149V19.4207V19.4267V19.4325V19.4383V19.4443V19.4501V19.4559V19.4618V19.4677V19.4735V19.4794V19.4853V19.4911V19.497V19.5028V19.5087V19.5146V19.5204V19.5263V19.5322V19.538V19.5438V19.5498V19.5556V19.5614V19.5674V19.5732V19.579V19.585V19.5908V19.5966V19.6026V19.6084V19.6142V19.6202V19.626V19.6318V19.6378V19.6436V19.6495V19.6554V19.6613V19.6671V19.673V19.6789V19.6849V19.6907V19.6966V19.7025V19.7084V19.7142V19.7202V19.7261V19.7319V19.7379V19.7438V19.7498V19.7556V19.7615V19.7675V19.7734V19.7794V19.7853V19.7911V19.7971V19.803V19.809V19.8149V19.821V19.8269V19.8329V19.8388V19.8447V19.8507V19.8567V19.8627V19.8686V19.8747V19.8806V19.8867V19.8926V19.8987V19.9046V19.9107V19.9166V19.9227V19.9287V19.9348V19.9407V19.9468V19.9529V19.9589V19.965V19.971V19.9771V19.9831V19.9893V19.9954V20.0014V20.0075V20.0137V20.0197V20.0259V20.0319V20.0381V20.0442V20.0503V20.0565V20.0627V20.0689V20.0749V20.0811V20.0873V20.0935V20.0997V20.1059V20.1121V20.1182V20.1245V20.1307V20.137V20.1431V20.1494V20.1557V20.1619V20.1682V20.1745V20.1807V20.187V20.1933V20.1996V20.206V20.2123V20.2186V20.225V20.2313V20.2377V20.2439V20.2503V20.2567V20.2631V20.2695V20.2759V20.2823V20.2887V20.2951V20.3017V20.3081V20.3145V20.321V20.3275V20.3339V20.3404V20.3469V20.3534V20.3599V20.3665V20.373V20.3796V20.3861V20.3927V20.3993V20.4059V20.4125V20.419V20.4257V20.4323V20.4389V20.4457V20.4523V20.4589V20.4657V20.4723V20.479V20.4858V20.4925V20.4991V20.5059V20.5127V20.5195V20.5233Z" fill="black"/>
<path fill-rule="evenodd" clip-rule="evenodd" d="M15.7921 6.50064C15.5733 6.37755 15.3067 6.37434 15.0849 6.49214L12.3914 7.92262C12.1506 8.05054 12 8.30101 12 8.57375V11.3923C12 11.6651 12.1506 11.9155 12.3914 12.0435L15.0849 13.474C15.3067 13.5917 15.5733 13.5885 15.7921 13.4654L18.3262 12.0404C18.5584 11.9099 18.7021 11.6642 18.7021 11.3978V8.56826C18.7021 8.30188 18.5584 8.05621 18.3262 7.92563L15.7921 6.50064ZM13.2549 8.36992L15.4298 7.21477L17.4845 8.3701C17.3688 8.42965 17.2418 8.4948 17.1071 8.5634C16.5854 8.82897 15.9541 9.14357 15.4306 9.38452C14.8742 9.14282 14.2015 8.82624 13.6465 8.55936C13.5069 8.49224 13.3751 8.42842 13.2549 8.36992ZM12.8 9.03824V11.3546L15.0353 12.5417V12.5398V12.5331V12.5262V12.5195V12.5127V12.5059V12.4991V12.4925V12.4858V12.479V12.4723V12.4656V12.4589V12.4523V12.4456V12.4389V12.4323V12.4256V12.419V12.4125V12.4059V12.3992V12.3927V12.3861V12.3796V12.3729V12.3664V12.3599V12.3534V12.3469V12.3404V12.3339V12.3275V12.321V12.3144V12.308V12.3016V12.2951V12.2887V12.2823V12.2759V12.2695V12.2631V12.2567V12.2503V12.2439V12.2376V12.2312V12.225V12.2186V12.2123V12.206V12.1996V12.1933V12.187V12.1807V12.1744V12.1682V12.1619V12.1557V12.1494V12.1431V12.1369V12.1307V12.1245V12.1182V12.112V12.1059V12.0997V12.0935V12.0872V12.0811V12.0749V12.0688V12.0627V12.0565V12.0503V12.0441V12.0381V12.0319V12.0259V12.0197V12.0136V12.0075V12.0014V11.9953V11.9892V11.9832V11.9771V11.971V11.965V11.9589V11.9529V11.9468V11.9408V11.9347V11.9287V11.9227V11.9167V11.9106V11.9046V11.8986V11.8926V11.8866V11.8806V11.8746V11.8686V11.8627V11.8567V11.8507V11.8447V11.8388V11.8328V11.8269V11.8209V11.8149V11.809V11.8031V11.7971V11.7912V11.7852V11.7793V11.7734V11.7675V11.7615V11.7556V11.7497V11.7438V11.7379V11.732V11.7261V11.7202V11.7143V11.7084V11.7025V11.6966V11.6907V11.6848V11.6789V11.673V11.6671V11.6612V11.6554V11.6495V11.6436V11.6377V11.6319V11.626V11.6201V11.6142V11.6084V11.6025V11.5966V11.5908V11.5849V11.579V11.5732V11.5673V11.5614V11.5556V11.5497V11.5439V11.538V11.5321V11.5263V11.5204V11.5146V11.5087V11.5028V11.497V11.4911V11.4852V11.4794V11.4735V11.4677V11.4618V11.4559V11.4501V11.4442V11.4383V11.4325V11.4266V11.4207V11.4149V11.409V11.4031V11.3973V11.3914V11.3855V11.3796V11.3737V11.3679V11.362V11.3561V11.3502V11.3443V11.3384V11.3325V11.3267V11.3208V11.3148V11.3089V11.3031V11.2971V11.2912V11.2853V11.2794V11.2735V11.2676V11.2616V11.2557V11.2498V11.2439V11.2379V11.232V11.226V11.2201V11.2142V11.2082V11.2023V11.1963V11.1903V11.1844V11.1784V11.1724V11.1664V11.1605V11.1545V11.1485V11.1425V11.1365V11.1305V11.1245V11.1185V11.1124V11.1064V11.1004V11.0944V11.0883V11.0823V11.0762V11.0702V11.0641V11.0581V11.052V11.0459V11.0399V11.0338V11.0277V11.0216V11.0155V11.0094V11.0033V10.9972V10.991V10.9849V10.9788V10.9726V10.9665V10.9603V10.9542V10.948V10.9418V10.9356V10.9295V10.9233V10.9171V10.9108V10.9046V10.8984V10.8922V10.8859V10.8797V10.8735V10.8672V10.8609V10.8547V10.8484V10.8421V10.8358V10.8295V10.8232V10.8169V10.8105V10.8042V10.7979V10.7915V10.7851V10.7788V10.7724V10.766V10.7596V10.7532V10.7468V10.7404V10.734V10.7275V10.7211V10.7146V10.7082V10.7017V10.6952V10.6887V10.6822V10.6757V10.6692V10.6626V10.6561V10.6496V10.643V10.6364V10.6299V10.6233V10.6167V10.61V10.6034V10.5968V10.5902V10.5835V10.5769V10.5702V10.5635V10.5568V10.5501V10.5434V10.5367V10.5299V10.5232V10.5164V10.5097V10.5029V10.4961V10.4893V10.4825V10.4756V10.4688V10.462V10.4551V10.4482V10.4413V10.4344V10.4275V10.4206V10.4137V10.4067V10.3998V10.3928V10.3858V10.3788V10.3718V10.3648V10.3578V10.3507V10.3437V10.3366V10.3295V10.3224V10.3153V10.3082V10.3011V10.2939V10.2868V10.2796V10.2724V10.2652V10.258V10.2507V10.2435V10.2362V10.229V10.2217V10.2144V10.2071V10.1998V10.1924V10.1851V10.1777V10.1703V10.1629V10.1555V10.148V10.1406V10.1332V10.1257V10.1182V10.1107V10.1032V10.0956V10.0881V10.0849C14.4797 9.84144 13.8314 9.53599 13.2998 9.28034C13.1173 9.19255 12.9479 9.11037 12.8 9.03824ZM15.8353 12.5232L17.9021 11.3611V9.05486C17.7721 9.12188 17.6262 9.19679 17.4701 9.27632C16.9696 9.53109 16.3595 9.83551 15.8353 10.0788V10.0805V10.0881V10.0956V10.1032V10.1107V10.1182V10.1257V10.1332V10.1406V10.148V10.1555V10.1629V10.1703V10.1777V10.1851V10.1924V10.1998V10.2071V10.2144V10.2217V10.229V10.2362V10.2435V10.2507V10.258V10.2652V10.2724V10.2796V10.2868V10.2939V10.3011V10.3082V10.3153V10.3224V10.3295V10.3366V10.3437V10.3507V10.3578V10.3648V10.3718V10.3788V10.3858V10.3928V10.3998V10.4067V10.4137V10.4206V10.4275V10.4344V10.4413V10.4482V10.4551V10.462V10.4688V10.4756V10.4825V10.4893V10.4961V10.5029V10.5097V10.5164V10.5232V10.5299V10.5367V10.5434V10.5501V10.5568V10.5635V10.5702V10.5769V10.5835V10.5902V10.5968V10.6034V10.61V10.6167V10.6233V10.6299V10.6364V10.643V10.6496V10.6561V10.6626V10.6692V10.6757V10.6822V10.6887V10.6952V10.7017V10.7082V10.7146V10.7211V10.7275V10.734V10.7404V10.7468V10.7532V10.7596V10.766V10.7724V10.7788V10.7851V10.7915V10.7979V10.8042V10.8105V10.8169V10.8232V10.8295V10.8358V10.8421V10.8484V10.8547V10.8609V10.8672V10.8735V10.8797V10.8859V10.8922V10.8984V10.9046V10.9108V10.9171V10.9233V10.9295V10.9356V10.9418V10.948V10.9542V10.9603V10.9665V10.9726V10.9788V10.9849V10.991V10.9972V11.0033V11.0094V11.0155V11.0216V11.0277V11.0338V11.0399V11.0459V11.052V11.0581V11.0641V11.0702V11.0762V11.0823V11.0883V11.0944V11.1004V11.1064V11.1124V11.1185V11.1245V11.1305V11.1365V11.1425V11.1485V11.1545V11.1605V11.1664V11.1724V11.1784V11.1844V11.1903V11.1963V11.2023V11.2082V11.2142V11.2201V11.226V11.232V11.2379V11.2439V11.2498V11.2557V11.2616V11.2676V11.2735V11.2794V11.2853V11.2912V11.2971V11.3031V11.3089V11.3148V11.3208V11.3267V11.3325V11.3384V11.3443V11.3502V11.3561V11.362V11.3679V11.3737V11.3796V11.3855V11.3914V11.3973V11.4031V11.409V11.4149V11.4207V11.4266V11.4325V11.4383V11.4442V11.4501V11.4559V11.4618V11.4677V11.4735V11.4794V11.4852V11.4911V11.497V11.5028V11.5087V11.5146V11.5204V11.5263V11.5321V11.538V11.5439V11.5497V11.5556V11.5614V11.5673V11.5732V11.579V11.5849V11.5908V11.5966V11.6025V11.6084V11.6142V11.6201V11.626V11.6319V11.6377V11.6436V11.6495V11.6554V11.6612V11.6671V11.673V11.6789V11.6848V11.6907V11.6966V11.7025V11.7084V11.7143V11.7202V11.7261V11.732V11.7379V11.7438V11.7497V11.7556V11.7615V11.7675V11.7734V11.7793V11.7852V11.7912V11.7971V11.8031V11.809V11.8149V11.8209V11.8269V11.8328V11.8388V11.8447V11.8507V11.8567V11.8627V11.8686V11.8746V11.8806V11.8866V11.8926V11.8986V11.9046V11.9106V11.9167V11.9227V11.9287V11.9347V11.9408V11.9468V11.9529V11.9589V11.965V11.971V11.9771V11.9832V11.9892V11.9953V12.0014V12.0075V12.0136V12.0197V12.0259V12.0319V12.0381V12.0441V12.0503V12.0565V12.0627V12.0688V12.0749V12.0811V12.0872V12.0935V12.0997V12.1059V12.112V12.1182V12.1245V12.1307V12.1369V12.1431V12.1494V12.1557V12.1619V12.1682V12.1744V12.1807V12.187V12.1933V12.1996V12.206V12.2123V12.2186V12.225V12.2312V12.2376V12.2439V12.2503V12.2567V12.2631V12.2695V12.2759V12.2823V12.2887V12.2951V12.3016V12.308V12.3144V12.321V12.3275V12.3339V12.3404V12.3469V12.3534V12.3599V12.3664V12.3729V12.3796V12.3861V12.3927V12.3992V12.4059V12.4125V12.419V12.4256V12.4323V12.4389V12.4456V12.4523V12.4589V12.4656V12.4723V12.479V12.4858V12.4925V12.4991V12.5059V12.5127V12.5195V12.5232Z" fill="black"/>
<path fill-rule="evenodd" clip-rule="evenodd" d="M8.93516 10.3803C8.71627 10.2572 8.44978 10.254 8.22798 10.3718L5.53452 11.8022C5.29364 11.9302 5.14307 12.1806 5.14307 12.4534V15.2719C5.14307 15.5447 5.29364 15.7951 5.53452 15.9231L8.22798 17.3535C8.44978 17.4714 8.71627 17.4682 8.93516 17.3451L11.4692 15.92C11.7015 15.7895 11.8451 15.5438 11.8451 15.2774V12.4479C11.8451 12.1815 11.7015 11.9358 11.4692 11.8053L8.93516 10.3803ZM6.39788 12.2495L8.57293 11.0944L10.6275 12.2498C10.5119 12.3093 10.3848 12.3744 10.2501 12.443C9.72848 12.7086 9.09717 13.0232 8.57375 13.2642C8.01728 13.0224 7.34458 12.7059 6.78957 12.439C6.64997 12.3719 6.51814 12.308 6.39788 12.2495ZM5.94307 12.9179V15.2342L8.17842 16.4214V16.4195V16.4126V16.4059V16.3991V16.3923V16.3855V16.3788V16.372V16.3653V16.3587V16.3519V16.3452V16.3386V16.3319V16.3252V16.3186V16.3119V16.3053V16.2987V16.292V16.2855V16.2789V16.2723V16.2658V16.2592V16.2526V16.2461V16.2396V16.2331V16.2266V16.22V16.2135V16.207V16.2006V16.1941V16.1877V16.1812V16.1748V16.1684V16.162V16.1555V16.1491V16.1427V16.1364V16.13V16.1236V16.1172V16.1109V16.1045V16.0982V16.0919V16.0855V16.0792V16.073V16.0667V16.0604V16.0541V16.0478V16.0415V16.0352V16.0291V16.0228V16.0165V16.0103V16.0042V15.9979V15.9917V15.9855V15.9792V15.9731V15.9669V15.9607V15.9546V15.9484V15.9422V15.9362V15.93V15.9238V15.9178V15.9116V15.9054V15.8994V15.8933V15.8871V15.8811V15.875V15.8688V15.8628V15.8567V15.8507V15.8446V15.8386V15.8325V15.8264V15.8204V15.8143V15.8084V15.8023V15.7963V15.7903V15.7843V15.7782V15.7723V15.7662V15.7603V15.7542V15.7483V15.7423V15.7363V15.7303V15.7244V15.7184V15.7125V15.7064V15.7005V15.6946V15.6886V15.6827V15.6767V15.6708V15.6648V15.6589V15.6531V15.6471V15.6412V15.6352V15.6293V15.6235V15.6175V15.6116V15.6056V15.5998V15.5939V15.588V15.5821V15.5762V15.5703V15.5644V15.5586V15.5526V15.5468V15.5408V15.535V15.5291V15.5232V15.5174V15.5115V15.5056V15.4997V15.4939V15.488V15.4821V15.4763V15.4704V15.4645V15.4587V15.4528V15.4469V15.4411V15.4352V15.4293V15.4235V15.4176V15.4118V15.4059V15.4V15.3942V15.3883V15.3824V15.3766V15.3708V15.3648V15.359V15.3532V15.3472V15.3414V15.3356V15.3298V15.3238V15.318V15.3122V15.3062V15.3004V15.2946V15.2886V15.2828V15.2768V15.271V15.2652V15.2592V15.2534V15.2475V15.2416V15.2357V15.2299V15.2239V15.2181V15.2122V15.2063V15.2004V15.1944V15.1886V15.1827V15.1767V15.1709V15.165V15.159V15.1531V15.1472V15.1413V15.1354V15.1294V15.1235V15.1175V15.1116V15.1056V15.0997V15.0938V15.0878V15.0819V15.0759V15.07V15.064V15.058V15.052V15.0461V15.04V15.0341V15.0282V15.0221V15.0162V15.0101V15.0042V14.9981V14.992V14.9861V14.98V14.974V14.9679V14.9619V14.9559V14.9499V14.9438V14.9378V14.9317V14.9255V14.9195V14.9134V14.9074V14.9012V14.8951V14.8891V14.8829V14.8768V14.8707V14.8645V14.8584V14.8523V14.8461V14.8399V14.8338V14.8276V14.8214V14.8152V14.8091V14.8029V14.7967V14.7904V14.7843V14.7781V14.7718V14.7655V14.7594V14.7531V14.7468V14.7406V14.7343V14.728V14.7218V14.7155V14.7091V14.7028V14.6965V14.6902V14.6838V14.6775V14.6711V14.6647V14.6584V14.652V14.6456V14.6392V14.6328V14.6264V14.62V14.6136V14.6071V14.6007V14.5942V14.5878V14.5813V14.5748V14.5684V14.5619V14.5554V14.5488V14.5423V14.5357V14.5292V14.5227V14.516V14.5095V14.5029V14.4963V14.4896V14.483V14.4764V14.4698V14.4631V14.4565V14.4499V14.4431V14.4365V14.4298V14.423V14.4163V14.4095V14.4028V14.396V14.3893V14.3826V14.3757V14.369V14.3621V14.3552V14.3485V14.3416V14.3348V14.3278V14.321V14.3141V14.3071V14.3003V14.2933V14.2863V14.2795V14.2725V14.2654V14.2584V14.2515V14.2445V14.2374V14.2303V14.2234V14.2163V14.2092V14.2021V14.195V14.1878V14.1807V14.1735V14.1664V14.1592V14.152V14.1448V14.1376V14.1303V14.1231V14.1159V14.1086V14.1013V14.094V14.0867V14.0794V14.072V14.0647V14.0573V14.05V14.0426V14.0351V14.0277V14.0203V14.0128V14.0053V13.9979V13.9903V13.9828V13.9752V13.9677V13.9645C7.62276 13.7211 6.97453 13.4156 6.44288 13.1599C6.2603 13.0722 6.09092 12.99 5.94307 12.9179ZM8.97842 16.4029L11.0451 15.2407V12.9344C10.9152 13.0015 10.7693 13.0764 10.6131 13.1559C10.1127 13.4107 9.50258 13.7151 8.97842 13.9584V13.9602V13.9677V13.9752V13.9828V13.9903V13.9979V14.0053V14.0128V14.0203V14.0277V14.0351V14.0426V14.05V14.0573V14.0647V14.072V14.0794V14.0867V14.094V14.1013V14.1086V14.1159V14.1231V14.1303V14.1376V14.1448V14.152V14.1592V14.1664V14.1735V14.1807V14.1878V14.195V14.2021V14.2092V14.2163V14.2234V14.2303V14.2374V14.2445V14.2515V14.2584V14.2654V14.2725V14.2795V14.2863V14.2933V14.3003V14.3071V14.3141V14.321V14.3278V14.3348V14.3416V14.3485V14.3552V14.3621V14.369V14.3757V14.3826V14.3893V14.396V14.4028V14.4095V14.4163V14.423V14.4298V14.4365V14.4431V14.4499V14.4565V14.4631V14.4698V14.4764V14.483V14.4896V14.4963V14.5029V14.5095V14.516V14.5227V14.5292V14.5357V14.5423V14.5488V14.5554V14.5619V14.5684V14.5748V14.5813V14.5878V14.5942V14.6007V14.6071V14.6136V14.62V14.6264V14.6328V14.6392V14.6456V14.652V14.6584V14.6647V14.6711V14.6775V14.6838V14.6902V14.6965V14.7028V14.7091V14.7155V14.7218V14.728V14.7343V14.7406V14.7468V14.7531V14.7594V14.7655V14.7718V14.7781V14.7843V14.7904V14.7967V14.8029V14.8091V14.8152V14.8214V14.8276V14.8338V14.8399V14.8461V14.8523V14.8584V14.8645V14.8707V14.8768V14.8829V14.8891V14.8951V14.9012V14.9074V14.9134V14.9195V14.9255V14.9317V14.9378V14.9438V14.9499V14.9559V14.9619V14.9679V14.974V14.98V14.9861V14.992V14.9981V15.0042V15.0101V15.0162V15.0221V15.0282V15.0341V15.04V15.0461V15.052V15.058V15.064V15.07V15.0759V15.0819V15.0878V15.0938V15.0997V15.1056V15.1116V15.1175V15.1235V15.1294V15.1354V15.1413V15.1472V15.1531V15.159V15.165V15.1709V15.1767V15.1827V15.1886V15.1944V15.2004V15.2063V15.2122V15.2181V15.2239V15.2299V15.2357V15.2416V15.2475V15.2534V15.2592V15.2652V15.271V15.2768V15.2828V15.2886V15.2946V15.3004V15.3062V15.3122V15.318V15.3238V15.3298V15.3356V15.3414V15.3472V15.3532V15.359V15.3648V15.3708V15.3766V15.3824V15.3883V15.3942V15.4V15.4059V15.4118V15.4176V15.4235V15.4293V15.4352V15.4411V15.4469V15.4528V15.4587V15.4645V15.4704V15.4763V15.4821V15.488V15.4939V15.4997V15.5056V15.5115V15.5174V15.5232V15.5291V15.535V15.5408V15.5468V15.5526V15.5586V15.5644V15.5703V15.5762V15.5821V15.588V15.5939V15.5998V15.6056V15.6116V15.6175V15.6235V15.6293V15.6352V15.6412V15.6471V15.6531V15.6589V15.6648V15.6708V15.6767V15.6827V15.6886V15.6946V15.7005V15.7064V15.7125V15.7184V15.7244V15.7303V15.7363V15.7423V15.7483V15.7542V15.7603V15.7662V15.7723V15.7782V15.7843V15.7903V15.7963V15.8023V15.8084V15.8143V15.8204V15.8264V15.8325V15.8386V15.8446V15.8507V15.8567V15.8628V15.8688V15.875V15.8811V15.8871V15.8933V15.8994V15.9054V15.9116V15.9178V15.9238V15.93V15.9362V15.9422V15.9484V15.9546V15.9607V15.9669V15.9731V15.9792V15.9855V15.9917V15.9979V16.0042V16.0103V16.0165V16.0228V16.0291V16.0352V16.0415V16.0478V16.0541V16.0604V16.0667V16.073V16.0792V16.0855V16.0919V16.0982V16.1045V16.1109V16.1172V16.1236V16.13V16.1364V16.1427V16.1491V16.1555V16.162V16.1684V16.1748V16.1812V16.1877V16.1941V16.2006V16.207V16.2135V16.22V16.2266V16.2331V16.2396V16.2461V16.2526V16.2592V16.2658V16.2723V16.2789V16.2855V16.292V16.2987V16.3053V16.3119V16.3186V16.3252V16.3319V16.3386V16.3452V16.3519V16.3587V16.3653V16.372V16.3788V16.3855V16.3923V16.3991V16.4029Z" fill="black"/>
<path fill-rule="evenodd" clip-rule="evenodd" d="M8.93516 2.38028C8.71627 2.25719 8.44978 2.25399 8.22798 2.37178L5.53452 3.80225C5.29364 3.93018 5.14307 4.18064 5.14307 4.45338V7.27196C5.14307 7.54471 5.29364 7.79516 5.53452 7.92309L8.22798 9.35356C8.44978 9.47136 8.71627 9.46816 8.93516 9.34506L11.4692 7.92007C11.7015 7.78949 11.8451 7.54383 11.8451 7.27745V4.4479C11.8451 4.18152 11.7015 3.93585 11.4692 3.80528L8.93516 2.38028ZM6.39788 4.24955L8.57293 3.0944L10.6275 4.24975C10.5119 4.30929 10.3848 4.37444 10.2501 4.44304C9.72848 4.70862 9.09717 5.0232 8.57375 5.26416C8.01728 5.02246 7.34458 4.70587 6.78957 4.439C6.64997 4.37188 6.51814 4.30806 6.39788 4.24955ZM5.94307 4.91787V7.23425L8.17842 8.42142V8.41946V8.41265V8.40586V8.39908V8.39232V8.38555V8.37881V8.37208V8.36535V8.35864V8.35193V8.34524V8.33856V8.33188V8.32523V8.31858V8.31194V8.30531V8.2987V8.29208V8.28548V8.27889V8.27232V8.26575V8.25919V8.25264V8.2461V8.23956V8.23305V8.22653V8.22003V8.21354V8.20706V8.20059V8.19412V8.18767V8.18122V8.17479V8.16835V8.16194V8.15553V8.14912V8.14273V8.13634V8.12996V8.1236V8.11724V8.11089V8.10455V8.09822V8.09188V8.08556V8.07926V8.07295V8.06665V8.06036V8.05408V8.04782V8.04154V8.03529V8.02904V8.0228V8.01656V8.01033V8.00411V7.9979V7.99169V7.98548V7.97929V7.97311V7.96692V7.96075V7.95458V7.94842V7.94226V7.93611V7.92998V7.92384V7.91771V7.91159V7.90547V7.89936V7.89324V7.88715V7.88105V7.87497V7.86888V7.86281V7.85673V7.85066V7.8446V7.83855V7.8325V7.82646V7.82041V7.81437V7.80834V7.80232V7.79629V7.79027V7.78426V7.77826V7.77225V7.76625V7.76026V7.75427V7.74828V7.7423V7.73632V7.73035V7.72438V7.71841V7.71244V7.70649V7.70054V7.69458V7.68864V7.6827V7.67675V7.67081V7.66488V7.65895V7.65302V7.6471V7.64118V7.63526V7.62934V7.62341V7.61751V7.6116V7.60569V7.59979V7.59388V7.58799V7.58209V7.5762V7.57031V7.56442V7.55852V7.55264V7.54675V7.54088V7.53499V7.52912V7.52323V7.51736V7.51148V7.50561V7.49973V7.49387V7.488V7.48213V7.47626V7.4704V7.46453V7.45867V7.4528V7.44694V7.44107V7.43521V7.42936V7.42349V7.41763V7.41177V7.40591V7.40004V7.39419V7.38833V7.38247V7.3766V7.37075V7.36489V7.35903V7.35316V7.3473V7.34144V7.33558V7.32971V7.32385V7.31798V7.31211V7.30625V7.30037V7.29451V7.28864V7.28276V7.27689V7.27101V7.26514V7.25927V7.25338V7.24751V7.24162V7.23573V7.22985V7.22396V7.21807V7.21218V7.20628V7.20039V7.19449V7.18859V7.18268V7.17677V7.17087V7.16496V7.15905V7.15313V7.14721V7.14129V7.13536V7.12943V7.1235V7.11756V7.11163V7.10569V7.09975V7.09379V7.08784V7.08188V7.07593V7.06996V7.064V7.05803V7.05205V7.04608V7.0401V7.03411V7.02812V7.02212V7.01612V7.01012V7.00411V6.9981V6.99209V6.98607V6.98003V6.97401V6.96796V6.96193V6.95588V6.94983V6.94377V6.93771V6.93164V6.92557V6.91949V6.91342V6.90732V6.90123V6.89513V6.88903V6.88291V6.8768V6.87067V6.86453V6.85841V6.85226V6.84611V6.83996V6.8338V6.82763V6.82146V6.81528V6.80908V6.80289V6.79669V6.79049V6.78427V6.77804V6.77181V6.76559V6.75935V6.7531V6.74683V6.74057V6.73429V6.72801V6.72172V6.71543V6.70913V6.70282V6.6965V6.69017V6.68384V6.6775V6.67114V6.66477V6.65841V6.65203V6.64564V6.63926V6.63286V6.62644V6.62002V6.6136V6.60715V6.60071V6.59426V6.58779V6.58131V6.57483V6.56834V6.56184V6.55534V6.54881V6.54228V6.53575V6.52919V6.52264V6.51607V6.50948V6.5029V6.49629V6.48969V6.48307V6.47644V6.4698V6.46315V6.45649V6.44982V6.44314V6.43644V6.42975V6.42303V6.41631V6.40956V6.40282V6.39607V6.3893V6.38251V6.37572V6.36892V6.36211V6.35528V6.34844V6.3416V6.33473V6.32786V6.32098V6.31408V6.30717V6.30025V6.29332V6.28638V6.27943V6.27246V6.26547V6.25848V6.25147V6.24446V6.23743V6.23038V6.22332V6.21625V6.20916V6.20207V6.19496V6.18784V6.18071V6.17355V6.1664V6.15922V6.15203V6.14483V6.13761V6.13039V6.12314V6.11588V6.10861V6.10132V6.09402V6.08672V6.07938V6.07204V6.06468V6.05731V6.04993V6.04254V6.03512V6.02769V6.02025V6.01279V6.00531V5.99783V5.99033V5.98281V5.97528V5.96772V5.9645C7.62276 5.72108 6.97453 5.41563 6.44288 5.15999C6.2603 5.07219 6.09092 4.99001 5.94307 4.91787ZM8.97842 8.40292L11.0451 7.24074V4.93449C10.9152 5.00151 10.7693 5.07643 10.6131 5.15595C10.1127 5.41072 9.50258 5.71515 8.97842 5.95843V5.96016V5.96772V5.97528V5.98281V5.99033V5.99783V6.00531V6.01279V6.02025V6.02769V6.03512V6.04254V6.04993V6.05731V6.06468V6.07204V6.07938V6.08672V6.09402V6.10132V6.10861V6.11588V6.12314V6.13039V6.13761V6.14483V6.15203V6.15922V6.1664V6.17355V6.18071V6.18784V6.19496V6.20207V6.20916V6.21625V6.22332V6.23038V6.23743V6.24446V6.25147V6.25848V6.26547V6.27246V6.27943V6.28638V6.29332V6.30025V6.30717V6.31408V6.32098V6.32786V6.33473V6.3416V6.34844V6.35528V6.36211V6.36892V6.37572V6.38251V6.3893V6.39607V6.40282V6.40956V6.41631V6.42303V6.42975V6.43644V6.44314V6.44982V6.45649V6.46315V6.4698V6.47644V6.48307V6.48969V6.49629V6.5029V6.50948V6.51607V6.52264V6.52919V6.53575V6.54228V6.54881V6.55534V6.56184V6.56834V6.57483V6.58131V6.58779V6.59426V6.60071V6.60715V6.6136V6.62002V6.62644V6.63286V6.63926V6.64564V6.65203V6.65841V6.66477V6.67114V6.6775V6.68384V6.69017V6.6965V6.70282V6.70913V6.71543V6.72172V6.72801V6.73429V6.74057V6.74683V6.7531V6.75935V6.76559V6.77181V6.77804V6.78427V6.79049V6.79669V6.80289V6.80908V6.81528V6.82146V6.82763V6.8338V6.83996V6.84611V6.85226V6.85841V6.86453V6.87067V6.8768V6.88291V6.88903V6.89513V6.90123V6.90732V6.91342V6.91949V6.92557V6.93164V6.93771V6.94377V6.94983V6.95588V6.96193V6.96796V6.97401V6.98003V6.98607V6.99209V6.9981V7.00411V7.01012V7.01612V7.02212V7.02812V7.03411V7.0401V7.04608V7.05205V7.05803V7.064V7.06996V7.07593V7.08188V7.08784V7.09379V7.09975V7.10569V7.11163V7.11756V7.1235V7.12943V7.13536V7.14129V7.14721V7.15313V7.15905V7.16496V7.17087V7.17677V7.18268V7.18859V7.19449V7.20039V7.20628V7.21218V7.21807V7.22396V7.22985V7.23573V7.24162V7.24751V7.25338V7.25927V7.26514V7.27101V7.27689V7.28276V7.28864V7.29451V7.30037V7.30625V7.31211V7.31798V7.32385V7.32971V7.33558V7.34144V7.3473V7.35316V7.35903V7.36489V7.37075V7.3766V7.38247V7.38833V7.39419V7.40004V7.40591V7.41177V7.41763V7.42349V7.42936V7.43521V7.44107V7.44694V7.4528V7.45867V7.46453V7.4704V7.47626V7.48213V7.488V7.49387V7.49973V7.50561V7.51148V7.51736V7.52323V7.52912V7.53499V7.54088V7.54675V7.55264V7.55852V7.56442V7.57031V7.5762V7.58209V7.58799V7.59388V7.59979V7.60569V7.6116V7.61751V7.62341V7.62934V7.63526V7.64118V7.6471V7.65302V7.65895V7.66488V7.67081V7.67675V7.6827V7.68864V7.69458V7.70054V7.70649V7.71244V7.71841V7.72438V7.73035V7.73632V7.7423V7.74828V7.75427V7.76026V7.76625V7.77225V7.77826V7.78426V7.79027V7.79629V7.80232V7.80834V7.81437V7.82041V7.82646V7.8325V7.83855V7.8446V7.85066V7.85673V7.86281V7.86888V7.87497V7.88105V7.88715V7.89324V7.89936V7.90547V7.91159V7.91771V7.92384V7.92998V7.93611V7.94226V7.94842V7.95458V7.96075V7.96692V7.97311V7.97929V7.98548V7.99169V7.9979V8.00411V8.01033V8.01656V8.0228V8.02904V8.03529V8.04154V8.04782V8.05408V8.06036V8.06665V8.07295V8.07926V8.08556V8.09188V8.09822V8.10455V8.11089V8.11724V8.1236V8.12996V8.13634V8.14273V8.14912V8.15553V8.16194V8.16835V8.17479V8.18122V8.18767V8.19412V8.20059V8.20706V8.21354V8.22003V8.22653V8.23305V8.23956V8.2461V8.25264V8.25919V8.26575V8.27232V8.27889V8.28548V8.29208V8.2987V8.30531V8.31194V8.31858V8.32523V8.33188V8.33856V8.34524V8.35193V8.35864V8.36535V8.37208V8.37881V8.38555V8.39232V8.39908V8.40292Z" fill="black"/>
</svg>
