<svg width="36" height="36" viewBox="0 0 36 36" fill="none" xmlns="http://www.w3.org/2000/svg">
<g clip-path="url(#clip0_34_1407)">
<g clip-path="url(#clip1_34_1407)">
<path d="M18 8.85C19.74 8.85 21.15 10.26 21.15 12C21.15 13.74 19.74 15.15 18 15.15C16.26 15.15 14.85 13.74 14.85 12C14.85 10.26 16.26 8.85 18 8.85ZM18 22.35C22.455 22.35 27.15 24.54 27.15 25.5V27.15H8.85V25.5C8.85 24.54 13.545 22.35 18 22.35ZM18 6C14.685 6 12 8.685 12 12C12 15.315 14.685 18 18 18C21.315 18 24 15.315 24 12C24 8.685 21.315 6 18 6ZM18 19.5C13.995 19.5 6 21.51 6 25.5V30H30V25.5C30 21.51 22.005 19.5 18 19.5Z" fill="#0C5BC6"/>
</g>
</g>
<defs>
<clipPath id="clip0_34_1407">
<rect width="36" height="36" fill="white"/>
</clipPath>
<clipPath id="clip1_34_1407">
<rect width="36" height="36" fill="white"/>
</clipPath>
</defs>
</svg>
