<svg width="19" height="22" viewBox="0 0 19 22" fill="none" xmlns="http://www.w3.org/2000/svg">
<g filter="url(#filter0_d_34_1323)">
<path fill-rule="evenodd" clip-rule="evenodd" d="M13.9957 7.00967C13.9923 7.01877 13.989 7.02788 13.9858 7.03714C13.9826 7.04674 13.9801 7.05675 13.9776 7.06673C13.9736 7.08298 13.9695 7.09914 13.9626 7.11334C13.9489 7.14142 13.9309 7.165 13.9129 7.18866C13.9078 7.1954 13.9027 7.20215 13.8976 7.20901C13.892 7.21619 13.887 7.22405 13.8821 7.23191C13.8751 7.24289 13.8682 7.25385 13.8595 7.26287C13.8335 7.28907 13.8035 7.30729 13.7735 7.32544C13.7714 7.32673 13.7693 7.32803 13.7671 7.32932C13.7608 7.33311 13.7548 7.33788 13.7488 7.34265C13.7402 7.34943 13.7316 7.35623 13.7221 7.36026C13.672 7.38318 13.6186 7.39578 13.5633 7.39578C13.5383 7.39578 13.5123 7.39349 13.4867 7.38776L11.5135 6.98386C11.2605 6.9323 11.0896 6.63725 11.1314 6.32501C11.1732 6.01335 11.4118 5.79965 11.6653 5.85408L12.4286 6.00991C11.8506 4.75753 10.7469 3.95832 9.53237 3.95832C8.15854 3.95832 6.94814 4.94258 6.4481 6.4648C6.3752 6.68824 6.20109 6.82287 6.0177 6.82287C5.95966 6.82287 5.9007 6.8097 5.84359 6.78105C5.60588 6.66246 5.4912 6.32845 5.58777 6.03512C6.23034 4.07749 7.77875 2.8125 9.53237 2.8125C11.1165 2.8125 12.5563 3.88384 13.2829 5.55559L13.4542 4.42524C13.5016 4.11473 13.7449 3.90905 13.996 3.96863C14.2482 4.0265 14.4144 4.32613 14.367 4.63722L14.0193 6.92886C14.0148 6.95808 14.0053 6.98386 13.9957 7.00967ZM12.552 9.47269C12.6481 9.17879 12.9192 9.03785 13.1565 9.15645C13.3942 9.27504 13.5089 9.60904 13.4123 9.90237C12.7697 11.86 11.2213 13.125 9.46772 13.125C7.88356 13.125 6.4438 12.0537 5.71719 10.3819L5.5454 11.5117C5.50408 11.7872 5.30908 11.9792 5.08947 11.9792C5.06115 11.9792 5.03236 11.9757 5.00358 11.9689C4.75147 11.911 4.58572 11.6114 4.63308 11.3003L4.98083 9.00863C4.98436 8.98613 4.99217 8.96616 5.00002 8.94609C5.00457 8.93449 5.00912 8.92285 5.01286 8.91067C5.01654 8.89925 5.01974 8.88744 5.02295 8.8756C5.0299 8.85001 5.03687 8.82432 5.04861 8.80239C5.05547 8.78935 5.06443 8.77892 5.07344 8.76842C5.07909 8.76184 5.08475 8.75524 5.08994 8.74796C5.09403 8.74212 5.09807 8.73624 5.10211 8.73036C5.1242 8.69822 5.1461 8.66637 5.17397 8.64312C5.17671 8.64066 5.17998 8.63919 5.18321 8.63774C5.18601 8.63648 5.18878 8.63524 5.19115 8.63338C5.23619 8.59729 5.28447 8.56921 5.33787 8.55489C5.34112 8.55396 5.34451 8.5542 5.34788 8.55444C5.35077 8.55464 5.35365 8.55485 5.35644 8.55432C5.40751 8.544 5.45905 8.5377 5.51337 8.54916L7.4866 8.95364C7.73963 9.00462 7.91049 9.30025 7.86871 9.61248C7.8311 9.89264 7.63424 10.0914 7.41092 10.0914C7.38585 10.0914 7.36031 10.0891 7.33477 10.0834L6.57148 9.92758C7.14952 11.18 8.25314 11.9792 9.46772 11.9792C10.8415 11.9792 12.052 10.9949 12.552 9.47269Z" fill="black"/>
</g>
<defs>
<filter id="filter0_d_34_1323" x="-1" y="0" width="21" height="23" filterUnits="userSpaceOnUse" color-interpolation-filters="sRGB">
<feFlood flood-opacity="0" result="BackgroundImageFix"/>
<feColorMatrix in="SourceAlpha" type="matrix" values="0 0 0 0 0 0 0 0 0 0 0 0 0 0 0 0 0 0 127 0" result="hardAlpha"/>
<feOffset dy="4"/>
<feGaussianBlur stdDeviation="2"/>
<feComposite in2="hardAlpha" operator="out"/>
<feColorMatrix type="matrix" values="0 0 0 0 0 0 0 0 0 0 0 0 0 0 0 0 0 0 0.25 0"/>
<feBlend mode="normal" in2="BackgroundImageFix" result="effect1_dropShadow_34_1323"/>
<feBlend mode="normal" in="SourceGraphic" in2="effect1_dropShadow_34_1323" result="shape"/>
</filter>
</defs>
</svg>
