<svg width="20" height="22" viewBox="0 0 20 22" fill="none" xmlns="http://www.w3.org/2000/svg">
<g filter="url(#filter0_d_34_1317)">
<path fill-rule="evenodd" clip-rule="evenodd" d="M14.8415 7.00967C14.8379 7.01877 14.8343 7.02788 14.8309 7.03714C14.8275 7.04674 14.8248 7.05675 14.8221 7.06674C14.8177 7.08298 14.8133 7.09915 14.8059 7.11334C14.7911 7.14142 14.7718 7.165 14.7524 7.18866C14.7469 7.1954 14.7413 7.20215 14.7359 7.20901C14.7298 7.21619 14.7245 7.22405 14.7191 7.23192C14.7117 7.24289 14.7042 7.25385 14.6949 7.26287C14.6669 7.28907 14.6345 7.30729 14.6023 7.32544C14.6 7.32674 14.5977 7.32803 14.5954 7.32932C14.5886 7.33311 14.5821 7.33788 14.5756 7.34265C14.5664 7.34943 14.5572 7.35623 14.5469 7.36026C14.4929 7.38318 14.4354 7.39578 14.3759 7.39578C14.3489 7.39578 14.3209 7.39349 14.2934 7.38776L12.1684 6.98386C11.8959 6.9323 11.7119 6.63725 11.7569 6.32501C11.8019 6.01335 12.0589 5.79965 12.3319 5.85408L13.1539 6.00991C12.5314 4.75753 11.3429 3.95832 10.0349 3.95832C8.55535 3.95832 7.25184 4.94258 6.71333 6.4648C6.63483 6.68824 6.44733 6.82287 6.24983 6.82287C6.18733 6.82287 6.12383 6.8097 6.06233 6.78105C5.80633 6.66246 5.68283 6.32845 5.78683 6.03512C6.47883 4.07749 8.14634 2.8125 10.0349 2.8125C11.7409 2.8125 13.2914 3.88384 14.0739 5.55559L14.2584 4.42524C14.3094 4.11473 14.5714 3.90905 14.8419 3.96863C15.1134 4.0265 15.2924 4.32613 15.2414 4.63722L14.8669 6.92886C14.8621 6.95808 14.8518 6.98386 14.8415 7.00967ZM13.2868 9.47269C13.3903 9.17879 13.6823 9.03785 13.9378 9.15645C14.1938 9.27504 14.3173 9.60904 14.2133 9.90237C13.5213 11.86 11.8537 13.125 9.96523 13.125C8.25922 13.125 6.70871 12.0537 5.92621 10.3819L5.7412 11.5117C5.6967 11.7872 5.4867 11.9792 5.2502 11.9792C5.2197 11.9792 5.1887 11.9757 5.1577 11.9689C4.8862 11.911 4.7077 11.6114 4.7587 11.3003L5.1332 9.00863C5.137 8.98613 5.14542 8.96616 5.15387 8.9461C5.15876 8.93449 5.16367 8.92285 5.1677 8.91067C5.17165 8.89925 5.17511 8.88744 5.17857 8.8756C5.18604 8.85001 5.19355 8.82432 5.2062 8.80239C5.21358 8.78935 5.22323 8.77892 5.23294 8.76842C5.23901 8.76184 5.24512 8.75524 5.2507 8.74796C5.2551 8.74212 5.25946 8.73624 5.26381 8.73036C5.2876 8.69822 5.31119 8.66637 5.3412 8.64312C5.34415 8.64066 5.34767 8.63919 5.35115 8.63774C5.35417 8.63648 5.35715 8.63524 5.3597 8.63338C5.4082 8.59729 5.4602 8.56921 5.5177 8.55489C5.5212 8.55396 5.52485 8.5542 5.52849 8.55444C5.5316 8.55464 5.5347 8.55485 5.5377 8.55432C5.5927 8.544 5.6482 8.5377 5.7067 8.54916L7.83172 8.95364C8.10422 9.00462 8.28822 9.30025 8.24322 9.61248C8.20272 9.89264 7.99072 10.0914 7.75022 10.0914C7.72322 10.0914 7.69572 10.0891 7.66822 10.0834L6.84621 9.92758C7.46872 11.18 8.65723 11.9792 9.96523 11.9792C11.4447 11.9792 12.7483 10.9949 13.2868 9.47269Z" fill="black"/>
</g>
<defs>
<filter id="filter0_d_34_1317" x="-1" y="0" width="22" height="23" filterUnits="userSpaceOnUse" color-interpolation-filters="sRGB">
<feFlood flood-opacity="0" result="BackgroundImageFix"/>
<feColorMatrix in="SourceAlpha" type="matrix" values="0 0 0 0 0 0 0 0 0 0 0 0 0 0 0 0 0 0 127 0" result="hardAlpha"/>
<feOffset dy="4"/>
<feGaussianBlur stdDeviation="2"/>
<feComposite in2="hardAlpha" operator="out"/>
<feColorMatrix type="matrix" values="0 0 0 0 0 0 0 0 0 0 0 0 0 0 0 0 0 0 0.25 0"/>
<feBlend mode="normal" in2="BackgroundImageFix" result="effect1_dropShadow_34_1317"/>
<feBlend mode="normal" in="SourceGraphic" in2="effect1_dropShadow_34_1317" result="shape"/>
</filter>
</defs>
</svg>
