<svg width="111" height="35" viewBox="0 0 111 35" fill="none" xmlns="http://www.w3.org/2000/svg">
<g filter="url(#filter0_d_34_1419)">
<path d="M1 16C1 7.16344 8.16344 0 17 0H94C102.837 0 110 7.16344 110 16C110 24.8366 102.837 32 94 32H17C8.16345 32 1 24.8366 1 16Z" fill="#FBFCFE"/>
<path d="M1.25 16C1.25 7.30152 8.30151 0.25 17 0.25H94C102.698 0.25 109.75 7.30152 109.75 16C109.75 24.6985 102.698 31.75 94 31.75H17C8.30152 31.75 1.25 24.6985 1.25 16Z" stroke="#DDE4F0" stroke-width="0.5"/>
</g>
<defs>
<filter id="filter0_d_34_1419" x="0" y="0" width="111" height="35" filterUnits="userSpaceOnUse" color-interpolation-filters="sRGB">
<feFlood flood-opacity="0" result="BackgroundImageFix"/>
<feColorMatrix in="SourceAlpha" type="matrix" values="0 0 0 0 0 0 0 0 0 0 0 0 0 0 0 0 0 0 127 0" result="hardAlpha"/>
<feOffset dy="2"/>
<feGaussianBlur stdDeviation="0.5"/>
<feColorMatrix type="matrix" values="0 0 0 0 0.25098 0 0 0 0 0.282353 0 0 0 0 0.321569 0 0 0 0.05 0"/>
<feBlend mode="normal" in2="BackgroundImageFix" result="effect1_dropShadow_34_1419"/>
<feBlend mode="normal" in="SourceGraphic" in2="effect1_dropShadow_34_1419" result="shape"/>
</filter>
</defs>
</svg>
