<svg width="28" height="28" viewBox="0 0 28 28" fill="none" xmlns="http://www.w3.org/2000/svg">
<g clip-path="url(#clip0_34_1402)">
<mask id="path-1-outside-1_34_1402" maskUnits="userSpaceOnUse" x="-1" y="-1" width="30" height="30" fill="black">
<rect fill="white" x="-1" y="-1" width="30" height="30"/>
<path d="M15.1667 28H12.8333C11.8685 28 11.0833 27.2148 11.0833 26.25V24.0777C10.3366 23.8618 9.61634 23.563 8.93608 23.1869L7.39958 24.724C6.73808 25.3855 5.586 25.3843 4.9245 24.724L3.27425 23.0743C2.9435 22.7442 2.7615 22.3043 2.7615 21.8371C2.7615 21.3698 2.9435 20.93 3.27425 20.5998L4.81133 19.0622C4.43518 18.3825 4.13678 17.6626 3.92175 16.9161H1.75C0.785167 16.9161 0 16.1309 0 15.1661V12.8328C0 12.3649 0.182 11.9257 0.512167 11.5955C0.674393 11.4325 0.86731 11.3033 1.07977 11.2153C1.29224 11.1272 1.52003 11.0822 1.75 11.0828H3.92233C4.13817 10.3373 4.43567 9.618 4.8125 8.93667L3.276 7.39958C2.94821 7.07126 2.76411 6.62628 2.76411 6.16233C2.76411 5.69839 2.94821 5.25341 3.276 4.92508L4.92567 3.27483C5.58658 2.6145 6.73925 2.61333 7.40075 3.27483L8.93783 4.81192C9.61757 4.43627 10.3372 4.13789 11.0833 3.92233V1.75C11.0833 0.785167 11.8685 0 12.8333 0H15.1667C16.1315 0 16.9167 0.785167 16.9167 1.75V3.92233C17.6633 4.13817 18.382 4.43625 19.0622 4.81192L20.5992 3.27483C21.2607 2.6145 22.4128 2.61333 23.0743 3.27483L24.7246 4.9245C25.0553 5.25467 25.2373 5.6945 25.2373 6.16175C25.2373 6.629 25.0553 7.06883 24.7246 7.399L23.1881 8.93608C23.5644 9.616 23.863 10.3361 24.0782 11.0828H26.25C27.2148 11.0828 28 11.8679 28 12.8328V15.1661C28 15.6339 27.818 16.0732 27.4878 16.4033C27.1577 16.7335 26.7178 16.9161 26.25 16.9161H24.0777C23.862 17.6626 23.5634 18.3827 23.1875 19.0627L24.724 20.5998C25.0518 20.9282 25.2359 21.3731 25.2359 21.8371C25.2359 22.301 25.0518 22.746 24.724 23.0743L23.0743 24.7246C22.4128 25.3855 21.2607 25.3855 20.5992 24.7246L19.0633 23.1875C18.3834 23.5633 17.6636 23.8619 16.9172 24.0777V26.25C16.9165 26.714 16.7318 27.1588 16.4036 27.4868C16.0755 27.8148 15.6307 27.9994 15.1667 28ZM8.84158 21.8738C8.946 21.8738 9.05158 21.9018 9.1455 21.959C9.96869 22.463 10.8656 22.8351 11.8038 23.0621C11.931 23.0928 12.0441 23.1655 12.1251 23.2683C12.206 23.3711 12.25 23.4982 12.25 23.6291V26.25C12.25 26.572 12.5119 26.8333 12.8333 26.8333H15.1667C15.4881 26.8333 15.75 26.572 15.75 26.25V23.6291C15.75 23.4982 15.794 23.3711 15.8749 23.2683C15.9559 23.1655 16.069 23.0928 16.1962 23.0621C17.1342 22.8353 18.0309 22.4633 18.8539 21.9596C19.0849 21.819 19.3801 21.8546 19.5708 22.0448L21.4247 23.8992C21.6434 24.1173 22.0308 24.1185 22.2501 23.8992L23.8997 22.2489C24.0091 22.1395 24.0705 21.9912 24.0705 21.8365C24.0705 21.6818 24.0091 21.5335 23.8997 21.4241L22.0453 19.5697C21.9527 19.4771 21.894 19.356 21.8785 19.226C21.8631 19.0959 21.8918 18.9645 21.9602 18.8527C22.4638 18.0297 22.8356 17.133 23.0621 16.1951C23.0927 16.0678 23.1653 15.9545 23.2682 15.8734C23.371 15.7924 23.4981 15.7483 23.6291 15.7482H26.25C26.3266 15.7486 26.4025 15.7337 26.4733 15.7046C26.5442 15.6755 26.6085 15.6326 26.6628 15.5785C26.717 15.5244 26.7599 15.4601 26.7892 15.3893C26.8185 15.3185 26.8335 15.2427 26.8333 15.1661V12.8328C26.8333 12.5108 26.5714 12.2494 26.25 12.2494H23.6291C23.4981 12.2495 23.3709 12.2054 23.2681 12.1244C23.1652 12.0433 23.0926 11.9299 23.0621 11.8026C22.8357 10.8646 22.4639 9.96788 21.9602 9.14492C21.8918 9.0332 21.8631 8.90174 21.8785 8.7717C21.894 8.64166 21.9527 8.52059 22.0453 8.428L23.8997 6.57358C24.0082 6.4645 24.0707 6.31458 24.0707 6.16117C24.0707 6.00775 24.0082 5.85725 23.8997 5.74875L22.2495 4.09908C22.1381 3.99326 21.9904 3.93425 21.8368 3.93425C21.6832 3.93425 21.5354 3.99326 21.4241 4.09908L19.5697 5.9535C19.4773 6.04657 19.3562 6.10565 19.2261 6.12111C19.0959 6.13658 18.9643 6.10752 18.8527 6.03867C18.0301 5.53517 17.1338 5.16337 16.1962 4.93675C16.0691 4.90633 15.9559 4.83394 15.8749 4.73128C15.794 4.62861 15.75 4.50166 15.75 4.37092V1.75C15.75 1.428 15.4881 1.16667 15.1667 1.16667H12.8333C12.5119 1.16667 12.25 1.428 12.25 1.75V4.37092C12.25 4.50178 12.206 4.62885 12.1251 4.73169C12.0441 4.83453 11.931 4.90716 11.8038 4.93792C10.8659 5.16451 9.96915 5.5363 9.14608 6.03983C9.03449 6.10823 8.9031 6.13702 8.77314 6.12157C8.64317 6.10612 8.52219 6.04732 8.42975 5.95467L6.57533 4.10025C6.46398 3.99442 6.31624 3.93542 6.16262 3.93542C6.00901 3.93542 5.86127 3.99442 5.74992 4.10025L4.10083 5.74992C3.99148 5.85931 3.93004 6.00765 3.93004 6.16233C3.93004 6.31701 3.99148 6.46536 4.10083 6.57475L5.95525 8.42917C6.04786 8.52176 6.10662 8.64282 6.12207 8.77287C6.13751 8.90291 6.10875 9.03437 6.04042 9.14608C5.53679 9.96889 5.16499 10.8654 4.9385 11.8032C4.90786 11.9305 4.83527 12.0438 4.73242 12.1248C4.62957 12.2059 4.50245 12.25 4.3715 12.25H1.75C1.67336 12.2497 1.59741 12.2646 1.52654 12.2937C1.45566 12.3229 1.39126 12.3658 1.33704 12.42C1.28282 12.4741 1.23985 12.5385 1.21061 12.6093C1.18137 12.6802 1.16644 12.7561 1.16667 12.8328V15.1661C1.16667 15.4881 1.42858 15.7494 1.75 15.7494H4.37092C4.64042 15.7494 4.87492 15.9337 4.93792 16.1962C5.1645 17.134 5.53629 18.0305 6.03983 18.8533C6.10817 18.965 6.13693 19.0965 6.12148 19.2265C6.10603 19.3566 6.04728 19.4777 5.95467 19.5702L4.10025 21.4252C3.99175 21.5343 3.92933 21.6842 3.92933 21.8377C3.92933 21.9911 3.99175 22.1416 4.10025 22.2501L5.7505 23.8997C5.86185 24.0056 6.00959 24.0646 6.16321 24.0646C6.31682 24.0646 6.46457 24.0056 6.57592 23.8997L8.42975 22.0453C8.48359 21.9909 8.54773 21.9477 8.61844 21.9182C8.68914 21.8888 8.76499 21.8737 8.84158 21.8738Z"/>
</mask>
<path d="M15.1667 28H12.8333C11.8685 28 11.0833 27.2148 11.0833 26.25V24.0777C10.3366 23.8618 9.61634 23.563 8.93608 23.1869L7.39958 24.724C6.73808 25.3855 5.586 25.3843 4.9245 24.724L3.27425 23.0743C2.9435 22.7442 2.7615 22.3043 2.7615 21.8371C2.7615 21.3698 2.9435 20.93 3.27425 20.5998L4.81133 19.0622C4.43518 18.3825 4.13678 17.6626 3.92175 16.9161H1.75C0.785167 16.9161 0 16.1309 0 15.1661V12.8328C0 12.3649 0.182 11.9257 0.512167 11.5955C0.674393 11.4325 0.86731 11.3033 1.07977 11.2153C1.29224 11.1272 1.52003 11.0822 1.75 11.0828H3.92233C4.13817 10.3373 4.43567 9.618 4.8125 8.93667L3.276 7.39958C2.94821 7.07126 2.76411 6.62628 2.76411 6.16233C2.76411 5.69839 2.94821 5.25341 3.276 4.92508L4.92567 3.27483C5.58658 2.6145 6.73925 2.61333 7.40075 3.27483L8.93783 4.81192C9.61757 4.43627 10.3372 4.13789 11.0833 3.92233V1.75C11.0833 0.785167 11.8685 0 12.8333 0H15.1667C16.1315 0 16.9167 0.785167 16.9167 1.75V3.92233C17.6633 4.13817 18.382 4.43625 19.0622 4.81192L20.5992 3.27483C21.2607 2.6145 22.4128 2.61333 23.0743 3.27483L24.7246 4.9245C25.0553 5.25467 25.2373 5.6945 25.2373 6.16175C25.2373 6.629 25.0553 7.06883 24.7246 7.399L23.1881 8.93608C23.5644 9.616 23.863 10.3361 24.0782 11.0828H26.25C27.2148 11.0828 28 11.8679 28 12.8328V15.1661C28 15.6339 27.818 16.0732 27.4878 16.4033C27.1577 16.7335 26.7178 16.9161 26.25 16.9161H24.0777C23.862 17.6626 23.5634 18.3827 23.1875 19.0627L24.724 20.5998C25.0518 20.9282 25.2359 21.3731 25.2359 21.8371C25.2359 22.301 25.0518 22.746 24.724 23.0743L23.0743 24.7246C22.4128 25.3855 21.2607 25.3855 20.5992 24.7246L19.0633 23.1875C18.3834 23.5633 17.6636 23.8619 16.9172 24.0777V26.25C16.9165 26.714 16.7318 27.1588 16.4036 27.4868C16.0755 27.8148 15.6307 27.9994 15.1667 28ZM8.84158 21.8738C8.946 21.8738 9.05158 21.9018 9.1455 21.959C9.96869 22.463 10.8656 22.8351 11.8038 23.0621C11.931 23.0928 12.0441 23.1655 12.1251 23.2683C12.206 23.3711 12.25 23.4982 12.25 23.6291V26.25C12.25 26.572 12.5119 26.8333 12.8333 26.8333H15.1667C15.4881 26.8333 15.75 26.572 15.75 26.25V23.6291C15.75 23.4982 15.794 23.3711 15.8749 23.2683C15.9559 23.1655 16.069 23.0928 16.1962 23.0621C17.1342 22.8353 18.0309 22.4633 18.8539 21.9596C19.0849 21.819 19.3801 21.8546 19.5708 22.0448L21.4247 23.8992C21.6434 24.1173 22.0308 24.1185 22.2501 23.8992L23.8997 22.2489C24.0091 22.1395 24.0705 21.9912 24.0705 21.8365C24.0705 21.6818 24.0091 21.5335 23.8997 21.4241L22.0453 19.5697C21.9527 19.4771 21.894 19.356 21.8785 19.226C21.8631 19.0959 21.8918 18.9645 21.9602 18.8527C22.4638 18.0297 22.8356 17.133 23.0621 16.1951C23.0927 16.0678 23.1653 15.9545 23.2682 15.8734C23.371 15.7924 23.4981 15.7483 23.6291 15.7482H26.25C26.3266 15.7486 26.4025 15.7337 26.4733 15.7046C26.5442 15.6755 26.6085 15.6326 26.6628 15.5785C26.717 15.5244 26.7599 15.4601 26.7892 15.3893C26.8185 15.3185 26.8335 15.2427 26.8333 15.1661V12.8328C26.8333 12.5108 26.5714 12.2494 26.25 12.2494H23.6291C23.4981 12.2495 23.3709 12.2054 23.2681 12.1244C23.1652 12.0433 23.0926 11.9299 23.0621 11.8026C22.8357 10.8646 22.4639 9.96788 21.9602 9.14492C21.8918 9.0332 21.8631 8.90174 21.8785 8.7717C21.894 8.64166 21.9527 8.52059 22.0453 8.428L23.8997 6.57358C24.0082 6.4645 24.0707 6.31458 24.0707 6.16117C24.0707 6.00775 24.0082 5.85725 23.8997 5.74875L22.2495 4.09908C22.1381 3.99326 21.9904 3.93425 21.8368 3.93425C21.6832 3.93425 21.5354 3.99326 21.4241 4.09908L19.5697 5.9535C19.4773 6.04657 19.3562 6.10565 19.2261 6.12111C19.0959 6.13658 18.9643 6.10752 18.8527 6.03867C18.0301 5.53517 17.1338 5.16337 16.1962 4.93675C16.0691 4.90633 15.9559 4.83394 15.8749 4.73128C15.794 4.62861 15.75 4.50166 15.75 4.37092V1.75C15.75 1.428 15.4881 1.16667 15.1667 1.16667H12.8333C12.5119 1.16667 12.25 1.428 12.25 1.75V4.37092C12.25 4.50178 12.206 4.62885 12.1251 4.73169C12.0441 4.83453 11.931 4.90716 11.8038 4.93792C10.8659 5.16451 9.96915 5.5363 9.14608 6.03983C9.03449 6.10823 8.9031 6.13702 8.77314 6.12157C8.64317 6.10612 8.52219 6.04732 8.42975 5.95467L6.57533 4.10025C6.46398 3.99442 6.31624 3.93542 6.16262 3.93542C6.00901 3.93542 5.86127 3.99442 5.74992 4.10025L4.10083 5.74992C3.99148 5.85931 3.93004 6.00765 3.93004 6.16233C3.93004 6.31701 3.99148 6.46536 4.10083 6.57475L5.95525 8.42917C6.04786 8.52176 6.10662 8.64282 6.12207 8.77287C6.13751 8.90291 6.10875 9.03437 6.04042 9.14608C5.53679 9.96889 5.16499 10.8654 4.9385 11.8032C4.90786 11.9305 4.83527 12.0438 4.73242 12.1248C4.62957 12.2059 4.50245 12.25 4.3715 12.25H1.75C1.67336 12.2497 1.59741 12.2646 1.52654 12.2937C1.45566 12.3229 1.39126 12.3658 1.33704 12.42C1.28282 12.4741 1.23985 12.5385 1.21061 12.6093C1.18137 12.6802 1.16644 12.7561 1.16667 12.8328V15.1661C1.16667 15.4881 1.42858 15.7494 1.75 15.7494H4.37092C4.64042 15.7494 4.87492 15.9337 4.93792 16.1962C5.1645 17.134 5.53629 18.0305 6.03983 18.8533C6.10817 18.965 6.13693 19.0965 6.12148 19.2265C6.10603 19.3566 6.04728 19.4777 5.95467 19.5702L4.10025 21.4252C3.99175 21.5343 3.92933 21.6842 3.92933 21.8377C3.92933 21.9911 3.99175 22.1416 4.10025 22.2501L5.7505 23.8997C5.86185 24.0056 6.00959 24.0646 6.16321 24.0646C6.31682 24.0646 6.46457 24.0056 6.57592 23.8997L8.42975 22.0453C8.48359 21.9909 8.54773 21.9477 8.61844 21.9182C8.68914 21.8888 8.76499 21.8737 8.84158 21.8738Z" fill="#0C5BC6"/>
<path d="M15.1667 28H12.8333C11.8685 28 11.0833 27.2148 11.0833 26.25V24.0777C10.3366 23.8618 9.61634 23.563 8.93608 23.1869L7.39958 24.724C6.73808 25.3855 5.586 25.3843 4.9245 24.724L3.27425 23.0743C2.9435 22.7442 2.7615 22.3043 2.7615 21.8371C2.7615 21.3698 2.9435 20.93 3.27425 20.5998L4.81133 19.0622C4.43518 18.3825 4.13678 17.6626 3.92175 16.9161H1.75C0.785167 16.9161 0 16.1309 0 15.1661V12.8328C0 12.3649 0.182 11.9257 0.512167 11.5955C0.674393 11.4325 0.86731 11.3033 1.07977 11.2153C1.29224 11.1272 1.52003 11.0822 1.75 11.0828H3.92233C4.13817 10.3373 4.43567 9.618 4.8125 8.93667L3.276 7.39958C2.94821 7.07126 2.76411 6.62628 2.76411 6.16233C2.76411 5.69839 2.94821 5.25341 3.276 4.92508L4.92567 3.27483C5.58658 2.6145 6.73925 2.61333 7.40075 3.27483L8.93783 4.81192C9.61757 4.43627 10.3372 4.13789 11.0833 3.92233V1.75C11.0833 0.785167 11.8685 0 12.8333 0H15.1667C16.1315 0 16.9167 0.785167 16.9167 1.75V3.92233C17.6633 4.13817 18.382 4.43625 19.0622 4.81192L20.5992 3.27483C21.2607 2.6145 22.4128 2.61333 23.0743 3.27483L24.7246 4.9245C25.0553 5.25467 25.2373 5.6945 25.2373 6.16175C25.2373 6.629 25.0553 7.06883 24.7246 7.399L23.1881 8.93608C23.5644 9.616 23.863 10.3361 24.0782 11.0828H26.25C27.2148 11.0828 28 11.8679 28 12.8328V15.1661C28 15.6339 27.818 16.0732 27.4878 16.4033C27.1577 16.7335 26.7178 16.9161 26.25 16.9161H24.0777C23.862 17.6626 23.5634 18.3827 23.1875 19.0627L24.724 20.5998C25.0518 20.9282 25.2359 21.3731 25.2359 21.8371C25.2359 22.301 25.0518 22.746 24.724 23.0743L23.0743 24.7246C22.4128 25.3855 21.2607 25.3855 20.5992 24.7246L19.0633 23.1875C18.3834 23.5633 17.6636 23.8619 16.9172 24.0777V26.25C16.9165 26.714 16.7318 27.1588 16.4036 27.4868C16.0755 27.8148 15.6307 27.9994 15.1667 28ZM8.84158 21.8738C8.946 21.8738 9.05158 21.9018 9.1455 21.959C9.96869 22.463 10.8656 22.8351 11.8038 23.0621C11.931 23.0928 12.0441 23.1655 12.1251 23.2683C12.206 23.3711 12.25 23.4982 12.25 23.6291V26.25C12.25 26.572 12.5119 26.8333 12.8333 26.8333H15.1667C15.4881 26.8333 15.75 26.572 15.75 26.25V23.6291C15.75 23.4982 15.794 23.3711 15.8749 23.2683C15.9559 23.1655 16.069 23.0928 16.1962 23.0621C17.1342 22.8353 18.0309 22.4633 18.8539 21.9596C19.0849 21.819 19.3801 21.8546 19.5708 22.0448L21.4247 23.8992C21.6434 24.1173 22.0308 24.1185 22.2501 23.8992L23.8997 22.2489C24.0091 22.1395 24.0705 21.9912 24.0705 21.8365C24.0705 21.6818 24.0091 21.5335 23.8997 21.4241L22.0453 19.5697C21.9527 19.4771 21.894 19.356 21.8785 19.226C21.8631 19.0959 21.8918 18.9645 21.9602 18.8527C22.4638 18.0297 22.8356 17.133 23.0621 16.1951C23.0927 16.0678 23.1653 15.9545 23.2682 15.8734C23.371 15.7924 23.4981 15.7483 23.6291 15.7482H26.25C26.3266 15.7486 26.4025 15.7337 26.4733 15.7046C26.5442 15.6755 26.6085 15.6326 26.6628 15.5785C26.717 15.5244 26.7599 15.4601 26.7892 15.3893C26.8185 15.3185 26.8335 15.2427 26.8333 15.1661V12.8328C26.8333 12.5108 26.5714 12.2494 26.25 12.2494H23.6291C23.4981 12.2495 23.3709 12.2054 23.2681 12.1244C23.1652 12.0433 23.0926 11.9299 23.0621 11.8026C22.8357 10.8646 22.4639 9.96788 21.9602 9.14492C21.8918 9.0332 21.8631 8.90174 21.8785 8.7717C21.894 8.64166 21.9527 8.52059 22.0453 8.428L23.8997 6.57358C24.0082 6.4645 24.0707 6.31458 24.0707 6.16117C24.0707 6.00775 24.0082 5.85725 23.8997 5.74875L22.2495 4.09908C22.1381 3.99326 21.9904 3.93425 21.8368 3.93425C21.6832 3.93425 21.5354 3.99326 21.4241 4.09908L19.5697 5.9535C19.4773 6.04657 19.3562 6.10565 19.2261 6.12111C19.0959 6.13658 18.9643 6.10752 18.8527 6.03867C18.0301 5.53517 17.1338 5.16337 16.1962 4.93675C16.0691 4.90633 15.9559 4.83394 15.8749 4.73128C15.794 4.62861 15.75 4.50166 15.75 4.37092V1.75C15.75 1.428 15.4881 1.16667 15.1667 1.16667H12.8333C12.5119 1.16667 12.25 1.428 12.25 1.75V4.37092C12.25 4.50178 12.206 4.62885 12.1251 4.73169C12.0441 4.83453 11.931 4.90716 11.8038 4.93792C10.8659 5.16451 9.96915 5.5363 9.14608 6.03983C9.03449 6.10823 8.9031 6.13702 8.77314 6.12157C8.64317 6.10612 8.52219 6.04732 8.42975 5.95467L6.57533 4.10025C6.46398 3.99442 6.31624 3.93542 6.16262 3.93542C6.00901 3.93542 5.86127 3.99442 5.74992 4.10025L4.10083 5.74992C3.99148 5.85931 3.93004 6.00765 3.93004 6.16233C3.93004 6.31701 3.99148 6.46536 4.10083 6.57475L5.95525 8.42917C6.04786 8.52176 6.10662 8.64282 6.12207 8.77287C6.13751 8.90291 6.10875 9.03437 6.04042 9.14608C5.53679 9.96889 5.16499 10.8654 4.9385 11.8032C4.90786 11.9305 4.83527 12.0438 4.73242 12.1248C4.62957 12.2059 4.50245 12.25 4.3715 12.25H1.75C1.67336 12.2497 1.59741 12.2646 1.52654 12.2937C1.45566 12.3229 1.39126 12.3658 1.33704 12.42C1.28282 12.4741 1.23985 12.5385 1.21061 12.6093C1.18137 12.6802 1.16644 12.7561 1.16667 12.8328V15.1661C1.16667 15.4881 1.42858 15.7494 1.75 15.7494H4.37092C4.64042 15.7494 4.87492 15.9337 4.93792 16.1962C5.1645 17.134 5.53629 18.0305 6.03983 18.8533C6.10817 18.965 6.13693 19.0965 6.12148 19.2265C6.10603 19.3566 6.04728 19.4777 5.95467 19.5702L4.10025 21.4252C3.99175 21.5343 3.92933 21.6842 3.92933 21.8377C3.92933 21.9911 3.99175 22.1416 4.10025 22.2501L5.7505 23.8997C5.86185 24.0056 6.00959 24.0646 6.16321 24.0646C6.31682 24.0646 6.46457 24.0056 6.57592 23.8997L8.42975 22.0453C8.48359 21.9909 8.54773 21.9477 8.61844 21.9182C8.68914 21.8888 8.76499 21.8737 8.84158 21.8738Z" stroke="#0C5BC6" mask="url(#path-1-outside-1_34_1402)"/>
<path d="M7.9165 14.0001C7.9165 17.3547 10.6453 20.0834 13.9998 20.0834C17.355 20.0834 20.0832 17.3546 20.0832 14.0001C20.0832 10.6455 17.3544 7.91675 13.9998 7.91675C10.6453 7.91675 7.9165 10.6455 7.9165 14.0001ZM9.58317 14.0001C9.58317 11.5651 11.5648 9.58341 13.9998 9.58341C16.4354 9.58341 18.4165 11.565 18.4165 14.0001C18.4165 16.4351 16.4348 18.4167 13.9998 18.4167C11.5648 18.4167 9.58317 16.4351 9.58317 14.0001Z" fill="#0C5BC6" stroke="#0C5BC6" stroke-width="0.5"/>
</g>
<defs>
<clipPath id="clip0_34_1402">
<rect width="28" height="28" fill="white"/>
</clipPath>
</defs>
</svg>
